<svg id="コンポーネント_1_1" data-name="コンポーネント 1 – 1" xmlns="http://www.w3.org/2000/svg" width="145.213" height="138.884" viewBox="0 0 145.213 138.884">
  <g id="グループ_2" data-name="グループ 2">
    <path id="パス_1" data-name="パス 1" d="M1176,349.843c-9.5,0-17.228-8.23-17.228-18.343v-5.241h4.922V331.5c0,7.224,5.521,13.1,12.306,13.1s12.307-5.878,12.307-13.1V318.4c0-5.781-4.415-10.481-9.845-10.481h-7.383c-4.045,0-8.812-2.554-11.544-4.258a11.418,11.418,0,0,0-.762,4.258c0,3.153.959,10.481,9.844,10.481v5.241c-10.9,0-14.767-8.471-14.767-15.723,0-6.15,2.856-9.369,3.182-9.715l1.445-1.538,1.688,1.228c1.827,1.331,7.348,4.783,10.915,4.783h7.383c8.144,0,14.768,7.053,14.768,15.723v13.1C1193.226,341.613,1185.5,349.843,1176,349.843Z" transform="translate(-1131.695 -273.85)" fill="#0052b4"/>
    <rect id="長方形_5" data-name="長方形 5" width="4.923" height="9.924" transform="translate(27.074 45.105)" fill="#0052b4"/>
    <path id="パス_2" data-name="パス 2" d="M1139.538,434.831h-4.923V413.473c0-8.721,5.584-16.132,13.58-18.023l8.581-2.032-.009-7.864h4.922v7.879a5.2,5.2,0,0,1-3.848,5.1l-8.578,2.032a12.984,12.984,0,0,0-9.725,12.905Z" transform="translate(-1122.309 -314.291)" fill="#0052b4"/>
    <path id="パス_3" data-name="パス 3" d="M1233.8,434.833h-4.922V413.475a12.984,12.984,0,0,0-9.725-12.905l-8.581-2.032a5.2,5.2,0,0,1-3.846-5.1v-7.877h4.922v7.877l8.571,2.017c8,1.891,13.58,9.3,13.58,18.023Z" transform="translate(-1157.506 -314.293)" fill="#0052b4"/>
    <g id="グループ_1" data-name="グループ 1" transform="translate(41.841 102.197)">
      <path id="パス_4" data-name="パス 4" d="M1197.23,442.308h-4.923v5.241h4.923v-5.241Z" transform="translate(-1192.307 -442.308)" fill="#0052b4"/>
      <path id="パス_5" data-name="パス 5" d="M1197.23,461.538h-4.923v5.241h4.923v-5.241Z" transform="translate(-1192.307 -451.057)" fill="#0052b4"/>
    </g>
    <path id="パス_6" data-name="パス 6" d="M1189.337,404.627h-12.306v-5.241h12.306a5.1,5.1,0,0,0,4.923-5.241V289.328a5.1,5.1,0,0,0-4.923-5.241h-68.915a5.1,5.1,0,0,0-4.923,5.241V394.146a5.1,5.1,0,0,0,4.923,5.241h41.841v5.241h-41.841c-5.43,0-9.845-4.7-9.845-10.481V289.328c0-5.781,4.416-10.482,9.845-10.482h68.915c5.43,0,9.845,4.7,9.845,10.482V394.146C1199.182,399.926,1194.766,404.627,1189.337,404.627Z" transform="translate(-1110.577 -265.744)" fill="#0052b4"/>
    <rect id="長方形_6" data-name="長方形 6" width="4.923" height="5.241" transform="translate(56.609 133.642)" fill="#0052b4"/>
    <rect id="長方形_7" data-name="長方形 7" width="4.923" height="11.068" transform="translate(95.989 30.859)" fill="#0052b4"/>
    <path id="パス_7" data-name="パス 7" d="M1310.5,324.622c-8.143,0-14.767-7.053-14.767-15.723v-2.621h4.922V308.9c0,5.781,4.415,10.482,9.845,10.482s9.845-4.7,9.845-10.482v-5.241c0-5.781-4.416-10.481-9.845-10.481a20.086,20.086,0,0,1-11.717-4.018,7.029,7.029,0,0,0-.589,2.713c0,4.358,4.732,6.546,7.384,6.546v5.241c-5.16,0-12.307-4.1-12.307-11.787a13.5,13.5,0,0,1,3.125-8.345l1.738-1.981,1.8,1.916a16.084,16.084,0,0,0,10.566,4.473c8.143,0,14.767,7.053,14.767,15.723V308.9C1325.265,317.569,1318.641,324.622,1310.5,324.622Z" transform="translate(-1199.742 -266.972)" fill="#0052b4"/>
    <path id="パス_8" data-name="パス 8" d="M1351.421,386.3H1346.5v-12.88a4.934,4.934,0,0,0-3.187-4.7l-11.58-4.112v-10.84h4.922v7.063l8.216,2.918a10.151,10.151,0,0,1,6.552,9.676Z" transform="translate(-1218.513 -299.83)" fill="#0052b4"/>
    <path id="パス_9" data-name="パス 9" d="M1298.01,368.719l-1.558-4.97,8.215-2.917v-7.063h4.922v10.84Z" transform="translate(-1201.295 -299.83)" fill="#0052b4"/>
    <path id="パス_10" data-name="パス 10" d="M1319.884,378.053a7.642,7.642,0,0,1-7.384-7.861h4.923a2.466,2.466,0,1,0,4.922,0h4.922A7.642,7.642,0,0,1,1319.884,378.053Z" transform="translate(-1209.128 -307.302)" fill="#0052b4"/>
    <path id="パス_11" data-name="パス 11" d="M1316.339,359.625h-49.223v-5.241h49.223a5.1,5.1,0,0,0,4.922-5.241V265.289a5.1,5.1,0,0,0-4.922-5.241h-51.686a5.1,5.1,0,0,0-4.923,5.241v5.241h-4.922v-5.241c0-5.781,4.415-10.481,9.845-10.481h51.686c5.43,0,9.845,4.7,9.845,10.481v83.855C1326.184,354.925,1321.769,359.625,1316.339,359.625Z" transform="translate(-1180.97 -254.808)" fill="#0052b4"/>
    <path id="パス_12" data-name="パス 12" d="M1196.82,421.5l-20.57-16.518,2.966-4.187,17.517,14.067,11.458-9.76,3.077,4.094Z" transform="translate(-1142.63 -321.224)" fill="#0052b4"/>
    <path id="パス_13" data-name="パス 13" d="M1164.024,421.5l-14.445-12.3,3.077-4.094,11.46,9.76,17.52-14.069,2.966,4.187Z" transform="translate(-1129.612 -321.222)" fill="#0052b4"/>
  </g>
</svg>
