<svg id="コンポーネント_2_2" data-name="コンポーネント 2 – 2" xmlns="http://www.w3.org/2000/svg" width="141.033" height="123.564" viewBox="0 0 141.033 123.564">
  <g id="グループ_4" data-name="グループ 4" transform="translate(-1985.577 -262.925)">
    <g id="グループ_3" data-name="グループ 3" transform="translate(2035.199 355.148)">
      <path id="パス_14" data-name="パス 14" d="M2082.147,432.692h-5.224v5.223h5.224v-5.223Z" transform="translate(-2076.923 -432.692)" fill="#0052b4"/>
      <path id="パス_15" data-name="パス 15" d="M2101.377,432.692h-5.223v5.223h5.223v-5.223Z" transform="translate(-2085.707 -432.692)" fill="#0052b4"/>
    </g>
    <path id="パス_16" data-name="パス 16" d="M2064.586,448.661a6.484,6.484,0,0,1-6.478-6.479V433.74a20.891,20.891,0,1,1,18.863,6.833l-8.335,6.669A6.532,6.532,0,0,1,2064.586,448.661Zm9.192-44.4a15.663,15.663,0,0,0-11.192,26.627l.745.76v10.533a1.3,1.3,0,0,0,2.046.977l9.482-7.585.745-.087a15.666,15.666,0,0,0-1.826-31.226Z" transform="translate(-30.744 -62.172)" fill="#0052b4"/>
    <rect id="長方形_12" data-name="長方形 12" width="15.67" height="5.223" transform="translate(2061.316 329.031)" fill="#0052b4"/>
    <rect id="長方形_13" data-name="長方形 13" width="13.059" height="5.223" transform="translate(2063.928 339.478)" fill="#0052b4"/>
    <path id="パス_17" data-name="パス 17" d="M2022.258,413.642a7.844,7.844,0,0,1-7.835-7.835V358.8a7.835,7.835,0,1,1,15.67,0v47.01A7.844,7.844,0,0,1,2022.258,413.642Zm0-57.457a2.614,2.614,0,0,0-2.611,2.612v47.01a2.612,2.612,0,1,0,5.223,0V358.8A2.614,2.614,0,0,0,2022.258,356.185Z" transform="translate(-13.176 -40.212)" fill="#0052b4"/>
    <path id="パス_18" data-name="パス 18" d="M2003.209,412.217c-10.546-2.719-17.632-11.669-17.632-22.276s7.083-19.534,17.624-22.256l1.305,5.06a17.652,17.652,0,0,0,0,34.411Z" transform="translate(0 -47.851)" fill="#0052b4"/>
    <path id="パス_19" data-name="パス 19" d="M2195.335,413.642a7.844,7.844,0,0,1-7.835-7.835V358.8a7.835,7.835,0,1,1,15.67,0v47.01A7.844,7.844,0,0,1,2195.335,413.642Zm0-57.457a2.614,2.614,0,0,0-2.612,2.612v47.01a2.612,2.612,0,1,0,5.224,0V358.8A2.613,2.613,0,0,0,2195.335,356.185Z" transform="translate(-92.232 -40.212)" fill="#0052b4"/>
    <path id="パス_20" data-name="パス 20" d="M2211.649,412.217l-1.3-5.06a17.653,17.653,0,0,0,0-34.411l1.306-5.06c10.541,2.722,17.624,11.663,17.624,22.256A22.9,22.9,0,0,1,2211.649,412.217Z" transform="translate(-102.667 -47.851)" fill="#0052b4"/>
    <path id="パス_21" data-name="パス 21" d="M2176.3,290.856a55.942,55.942,0,0,0-18.794-15.517l2.342-4.667a61.194,61.194,0,0,1,20.57,16.966Z" transform="translate(-78.532 -3.539)" fill="#0052b4"/>
    <path id="パス_22" data-name="パス 22" d="M2142.771,269.174c-1.283-.447-2.6-.849-3.93-1.194l1.311-5.055c1.464.38,2.925.824,4.338,1.316Z" transform="translate(-70.006)" fill="#0052b4"/>
    <path id="パス_23" data-name="パス 23" d="M2117.875,321.582c-5.116-22.087-22.615-37.512-42.554-37.512s-37.444,15.425-42.558,37.512l-5.091-1.178c5.669-24.469,25.263-41.558,47.649-41.558s41.976,17.089,47.645,41.558Z" transform="translate(-19.228 -7.272)" fill="#0052b4"/>
    <rect id="長方形_14" data-name="長方形 14" width="5.223" height="11.492" transform="translate(2024.028 318.941) rotate(-45)" fill="#0052b4"/>
    <rect id="長方形_15" data-name="長方形 15" width="5.223" height="10.447" transform="translate(2043.034 310.749)" fill="#0052b4"/>
    <rect id="長方形_16" data-name="長方形 16" width="5.223" height="11.236" transform="translate(2081.669 373.971) rotate(-45)" fill="#0052b4"/>
    <rect id="長方形_17" data-name="長方形 17" width="5.223" height="10.447" transform="translate(2069.151 376.042)" fill="#0052b4"/>
    <path id="パス_24" data-name="パス 24" d="M2121.855,395.776a20.947,20.947,0,0,1-9.641-2.344l2.413-4.632a15.672,15.672,0,0,0,18.42-24.875l-.745-.76V352.632a1.3,1.3,0,0,0-2.043-.979l-9.486,7.588-.745.087a15.654,15.654,0,0,0-13.844,15.555,15.855,15.855,0,0,0,.548,4.025l-5.055,1.327a21.264,21.264,0,0,1-.717-5.351,20.879,20.879,0,0,1,17.7-20.641l8.335-6.67a6.482,6.482,0,0,1,10.529,5.06v8.442a20.885,20.885,0,0,1-15.67,34.7Z" transform="translate(-52.704 -38.016)" fill="#0052b4"/>
    <path id="パス_25" data-name="パス 25" d="M2112.538,311.135a7.734,7.734,0,0,1-4.869-1.7,31.389,31.389,0,0,0-18.636-6.139,30.535,30.535,0,0,0-18.8,6.264,7.835,7.835,0,0,1-11.765-9.666l4.7,2.281a2.549,2.549,0,0,0-.252,1.122,2.613,2.613,0,0,0,2.612,2.612,2.587,2.587,0,0,0,1.556-.513,35.693,35.693,0,0,1,21.95-7.322,36.681,36.681,0,0,1,21.827,7.228,2.655,2.655,0,0,0,4.29-2,2.58,2.58,0,0,0-.251-1.12l4.714-2.25a7.749,7.749,0,0,1,.76,3.369A7.843,7.843,0,0,1,2112.538,311.135Z" transform="translate(-32.94 -16.056)" fill="#0052b4"/>
  </g>
</svg>
