<svg id="コンポーネント_5_3" data-name="コンポーネント 5 – 3" xmlns="http://www.w3.org/2000/svg" width="130.445" height="135.462" viewBox="0 0 130.445 135.462">
  <g id="グループ_7" data-name="グループ 7" transform="translate(-1557.692 -1557.692)">
    <path id="パス_36" data-name="パス 36" d="M1562.709,1751.309h-5.017v-49.936a15.089,15.089,0,0,1,4.449-10.739l11.338-11.335,3.547,3.547-11.337,11.335a10.106,10.106,0,0,0-2.979,7.192Z" transform="translate(0 -58.155)" fill="#0052b4"/>
    <path id="パス_37" data-name="パス 37" d="M1593.4,1757.53h-5.017v-10a7.488,7.488,0,0,1,2.832-5.867c4.8-3.76,6.73-8.033,7.112-15.76a33.652,33.652,0,0,1,1.854-9.679l5.593-15.482a2.566,2.566,0,0,0,.169-.909,2.457,2.457,0,0,0-.73-1.8,2.508,2.508,0,0,0-1.774-.713h0a2.5,2.5,0,0,0-2.249,1.389l-16.872,31.163-4.409-2.391,16.832-31.09a7.458,7.458,0,0,1,6.693-4.089h.007a7.529,7.529,0,0,1,7.043,10.169l-5.58,15.446a28.606,28.606,0,0,0-1.563,8.231c-.453,9.153-3.069,14.792-9.03,19.461a2.434,2.434,0,0,0-.909,1.916Z" transform="translate(-10.625 -64.376)" fill="#0052b4"/>
    <path id="パス_38" data-name="パス 38" d="M1787.644,1748.558h-5.017v-49.936a10.106,10.106,0,0,0-2.979-7.192l-13.878-14.4,3.611-3.484,13.846,14.368a15.062,15.062,0,0,1,4.417,10.708Z" transform="translate(-99.508 -55.404)" fill="#0052b4"/>
    <path id="パス_39" data-name="パス 39" d="M1748.539,1757.53h-5.017v-9.966a2.525,2.525,0,0,0-.938-1.977c-5.938-4.66-8.547-10.292-9-19.434a28.611,28.611,0,0,0-1.565-8.238l-5.588-15.468a7.5,7.5,0,0,1,7.058-10.139h.007a7.489,7.489,0,0,1,6.727,4.162l13.976,26.007-4.42,2.376-14.01-26.073a2.534,2.534,0,0,0-2.278-1.455h0a2.509,2.509,0,0,0-2.35,3.388l5.6,15.5a33.674,33.674,0,0,1,1.857,9.686c.382,7.719,2.3,11.984,7.09,15.74a7.588,7.588,0,0,1,2.854,5.921Z" transform="translate(-80.471 -64.376)" fill="#0052b4"/>
    <rect id="長方形_36" data-name="長方形 36" width="68.547" height="5.017" transform="translate(1588.642 1668.068)" fill="#0052b4"/>
    <path id="パス_40" data-name="パス 40" d="M1591.556,1657.355h-5.017v-94.646a5.024,5.024,0,0,1,5.017-5.017h77.765a5.024,5.024,0,0,1,5.017,5.017V1634.2h-5.017v-71.489h-77.765Z" transform="translate(-13.795 0)" fill="#0052b4"/>
    <path id="パス_41" data-name="パス 41" d="M1630.226,1618.731a10.044,10.044,0,0,1-10.034-10.034v-2.508a10.034,10.034,0,0,1,20.069,0v2.508A10.044,10.044,0,0,1,1630.226,1618.731Zm0-17.56a5.023,5.023,0,0,0-5.017,5.017v2.508a5.017,5.017,0,1,0,10.034,0v-2.508A5.024,5.024,0,0,0,1630.226,1601.171Z" transform="translate(-29.889 -18.393)" fill="#0052b4"/>
    <path id="パス_42" data-name="パス 42" d="M1640.471,1649.876h-5.018v-7.526a7.526,7.526,0,1,0-15.051,0v7.526h-5.017v-7.526a12.543,12.543,0,0,1,25.086,0Z" transform="translate(-27.59 -34.487)" fill="#0052b4"/>
    <rect id="長方形_37" data-name="長方形 37" width="5.017" height="17.56" transform="translate(1620.406 1595.32)" fill="#0052b4"/>
    <rect id="長方形_38" data-name="長方形 38" width="5.017" height="30.103" transform="translate(1630.44 1582.778)" fill="#0052b4"/>
    <rect id="長方形_39" data-name="長方形 39" width="5.017" height="42.645" transform="translate(1640.474 1570.235)" fill="#0052b4"/>
    <rect id="長方形_40" data-name="長方形 40" width="40.137" height="5.017" transform="translate(1602.846 1645.491)" fill="#0052b4"/>
    <rect id="長方形_41" data-name="長方形 41" width="30.103" height="5.017" transform="translate(1602.846 1655.526)" fill="#0052b4"/>
    <rect id="長方形_42" data-name="長方形 42" width="5.017" height="5.017" transform="translate(1637.966 1655.526)" fill="#0052b4"/>
    <path id="パス_43" data-name="パス 43" d="M1762.543,1671.264h-5.017v-70.092H1750v-5.017h7.526a5.024,5.024,0,0,1,5.017,5.017Z" transform="translate(-91.966 -18.393)" fill="#0052b4"/>
  </g>
</svg>
