<svg id="コンポーネント_4_2" data-name="コンポーネント 4 – 2" xmlns="http://www.w3.org/2000/svg" width="129.807" height="127.403" viewBox="0 0 129.807 127.403">
  <g id="グループ_6" data-name="グループ 6" transform="translate(-687.5 -697.115)">
    <path id="パス_30" data-name="パス 30" d="M872.6,725.961a12.033,12.033,0,0,1-12.019-12.019v-4.807a12.019,12.019,0,1,1,24.038,0v4.807A12.034,12.034,0,0,1,872.6,725.961Zm0-24.038a7.219,7.219,0,0,0-7.211,7.212v4.807a7.212,7.212,0,0,0,14.423,0v-4.807A7.219,7.219,0,0,0,872.6,701.923Z" transform="translate(-86.539)" fill="#0052b4"/>
    <path id="パス_31" data-name="パス 31" d="M836.538,764.423H831.73V745.192a4.8,4.8,0,0,0-1.641-3.611l-19.918-17.418a7.192,7.192,0,0,1,4.719-12.625h.01a7.216,7.216,0,0,1,4.735,1.794l10.195,8.906a23.841,23.841,0,0,0,16.324,6.127A23.783,23.783,0,0,1,870.192,752.4v2.4a7.219,7.219,0,0,1-7.211,7.211H850.961a7.211,7.211,0,0,1,0-14.423h9.615V752.4h-9.615a2.4,2.4,0,0,0,0,4.808H862.98a2.406,2.406,0,0,0,2.4-2.4v-2.4a19.025,19.025,0,0,0-19.231-19.23,28.458,28.458,0,0,1-19.489-7.315l-10.19-8.9a2.931,2.931,0,0,0-1.575-.608,2.4,2.4,0,0,0-2.4,2.4,2.355,2.355,0,0,0,.833,1.794l19.921,17.421a9.6,9.6,0,0,1,3.284,7.23Z" transform="translate(-60.096 -7.212)" fill="#0052b4"/>
    <rect id="長方形_24" data-name="長方形 24" width="4.808" height="25.214" transform="translate(701.923 740.384)" fill="#0052b4"/>
    <path id="パス_32" data-name="パス 32" d="M698.932,795.731a7.287,7.287,0,0,1-1.817-4.866V769.23a23.783,23.783,0,0,1,24.038-24.038,25.4,25.4,0,0,1,14.247,4.38l4.259,2.969L744.9,747.3a7.152,7.152,0,0,1,5.09-2.108H750A7.209,7.209,0,0,1,755.1,757.5l-9.615,9.615a7.3,7.3,0,0,1-9.392.673l-.514-.359v13.82h-4.808V758.2l8.136,5.688a2.626,2.626,0,0,0,3.181-.178L751.7,754.1a2.391,2.391,0,0,0,.7-1.7,2.355,2.355,0,0,0-2.409-2.4h0a2.376,2.376,0,0,0-1.69.7l-8.092,8.092-7.559-5.277a20.487,20.487,0,0,0-11.5-3.514,19.025,19.025,0,0,0-19.23,19.23v21.634a2.54,2.54,0,0,0,.6,1.669Z" transform="translate(-4.808 -24.039)" fill="#0052b4"/>
    <path id="パス_33" data-name="パス 33" d="M733.173,725.961a12.036,12.036,0,0,1-12.019-12.026v-4.807a12.019,12.019,0,0,1,24.038,0v4.807A12.037,12.037,0,0,1,733.173,725.961Zm0-24.038a7.217,7.217,0,0,0-7.212,7.2v4.807a7.211,7.211,0,1,0,14.423,0v-4.807A7.216,7.216,0,0,0,733.173,701.923Z" transform="translate(-16.827)" fill="#0052b4"/>
    <path id="パス_34" data-name="パス 34" d="M697.094,841.344a4.808,4.808,0,0,1-4.786-4.805v-5.383a4.776,4.776,0,0,1,2.655-4.3l25.2-13.472a7.5,7.5,0,0,1,3.533-.885h16.687a4.814,4.814,0,0,1,4.807,4.807v4.808a4.814,4.814,0,0,1-4.807,4.807h-15.09L699.32,840.806A4.967,4.967,0,0,1,697.094,841.344Zm26.6-24.036a2.7,2.7,0,0,0-1.265.317l-25.318,13.531v5.383l26.975-14.423h16.294v-4.808Z" transform="translate(-2.404 -57.693)" fill="#0052b4"/>
    <rect id="長方形_25" data-name="長方形 25" width="4.808" height="40.865" transform="translate(692.308 781.25)" fill="#0052b4"/>
    <rect id="長方形_26" data-name="長方形 26" width="4.808" height="55.288" transform="translate(735.577 766.827)" fill="#0052b4"/>
    <rect id="長方形_27" data-name="長方形 27" width="4.808" height="25.837" transform="translate(718.75 767.432)" fill="#0052b4"/>
    <rect id="長方形_28" data-name="長方形 28" width="4.808" height="4.808" transform="translate(718.75 798.076)" fill="#0052b4"/>
    <rect id="長方形_29" data-name="長方形 29" width="4.808" height="4.808" transform="translate(718.75 807.692)" fill="#0052b4"/>
    <path id="パス_35" data-name="パス 35" d="M884.62,841.348a4.817,4.817,0,0,1-2.151-.512l-26.031-13.913H841.346a4.814,4.814,0,0,1-4.807-4.807v-4.808a4.814,4.814,0,0,1,4.807-4.807h16.827v4.807H841.346v4.808h16.294l27.038,14.451-.063-5.411-19.784-10.573,2.268-4.24,19.728,10.545a4.749,4.749,0,0,1,2.6,4.268v5.383a4.818,4.818,0,0,1-4.8,4.81Z" transform="translate(-74.52 -57.693)" fill="#0052b4"/>
    <rect id="長方形_30" data-name="長方形 30" width="4.808" height="40.865" transform="translate(807.692 781.25)" fill="#0052b4"/>
    <rect id="長方形_31" data-name="長方形 31" width="4.808" height="55.288" transform="translate(764.423 766.827)" fill="#0052b4"/>
    <rect id="長方形_32" data-name="長方形 32" width="4.808" height="4.808" transform="translate(781.25 778.846)" fill="#0052b4"/>
    <rect id="長方形_33" data-name="長方形 33" width="4.808" height="33.654" transform="translate(781.25 788.461)" fill="#0052b4"/>
    <rect id="長方形_34" data-name="長方形 34" width="129.807" height="4.808" transform="translate(687.5 819.711)" fill="#0052b4"/>
    <rect id="長方形_35" data-name="長方形 35" width="4.808" height="13.195" transform="translate(798.077 752.404)" fill="#0052b4"/>
  </g>
</svg>
