<svg id="コンポーネント_3_2" data-name="コンポーネント 3 – 2" xmlns="http://www.w3.org/2000/svg" width="123.195" height="120.996" viewBox="0 0 123.195 120.996">
  <g id="グループ_5" data-name="グループ 5" transform="translate(-1990.385 -1548.077)">
    <path id="パス_26" data-name="パス 26" d="M2172.949,1600.781a4.8,4.8,0,0,1-3.414-1.407l-8.25-8.25,3.111-3.111,8.25,8.25a.547.547,0,0,0,.614,0l16.051-16.051a.456.456,0,0,0,0-.662l-2.825-2.825a.417.417,0,0,0-.666,0l-12.866,12.867-6.274-6.273a.435.435,0,0,0-.326-.137.465.465,0,0,0-.326.137l-2.849,2.849a.49.49,0,0,0-.125.339h-4.4a4.907,4.907,0,0,1,1.413-3.451l2.849-2.848a5,5,0,0,1,6.875,0l3.162,3.162,9.756-9.756a5,5,0,0,1,6.887,0l2.825,2.825a4.855,4.855,0,0,1,0,6.883l-16.05,16.05A4.872,4.872,0,0,1,2172.949,1600.781Z" transform="translate(-91.272 -13.106)" fill="#0052b4"/>
    <path id="パス_27" data-name="パス 27" d="M2165.631,1607.475a4.628,4.628,0,0,1-4.617-4.634v-4.165h-4.4v-4.4h8.8v8.57l.217.23,9.943-8.8h9.639a2.2,2.2,0,0,0,2.2-2.2v-37.4a2.2,2.2,0,0,0-2.2-2.2h-44a2.2,2.2,0,0,0-2.2,2.2v13.2h-4.4v-13.2a6.607,6.607,0,0,1,6.6-6.6h44a6.607,6.607,0,0,1,6.6,6.6v37.4a6.607,6.607,0,0,1-6.6,6.6h-7.959l-8.548,7.629A4.624,4.624,0,0,1,2165.631,1607.475Z" transform="translate(-78.233)" fill="#0052b4"/>
    <path id="パス_28" data-name="パス 28" d="M2066.052,1675.35a7.958,7.958,0,0,1-2.342-.352l-56.057-17.249h-8.469a8.808,8.808,0,0,1-8.8-8.8v-22a8.808,8.808,0,0,1,8.8-8.8h8.392l55.851-21.482a7.764,7.764,0,0,1,6.832.612,8.018,8.018,0,0,1,3.723,6.9v62.954a8.185,8.185,0,0,1-3.332,6.754l0,0A8.005,8.005,0,0,1,2066.052,1675.35Zm-66.868-52.8a4.406,4.406,0,0,0-4.4,4.4v22a4.406,4.406,0,0,0,4.4,4.4l9.446.1L2065,1670.791a3.586,3.586,0,0,0,3.119-.507,3.852,3.852,0,0,0,1.459-3.154v-62.954a3.61,3.61,0,0,0-1.592-3.128,3.4,3.4,0,0,0-2.982-.273l-56.616,21.774Z" transform="translate(0 -26.074)" fill="#0052b4"/>
    <rect id="長方形_18" data-name="長方形 18" width="4.4" height="13.2" transform="translate(2005.784 1594.275)" fill="#0052b4"/>
    <rect id="長方形_19" data-name="長方形 19" width="4.4" height="4.4" transform="translate(2005.784 1611.875)" fill="#0052b4"/>
    <rect id="長方形_20" data-name="長方形 20" width="4.4" height="8.8" transform="translate(2005.784 1620.675)" fill="#0052b4"/>
    <rect id="長方形_21" data-name="長方形 21" width="4.4" height="41.289" transform="translate(2014.584 1590.892)" fill="#0052b4"/>
    <rect id="長方形_22" data-name="長方形 22" width="4.4" height="13.2" transform="translate(2060.782 1616.275)" fill="#0052b4"/>
    <rect id="長方形_23" data-name="長方形 23" width="4.4" height="4.4" transform="translate(2060.782 1607.475)" fill="#0052b4"/>
    <path id="パス_29" data-name="パス 29" d="M2032.573,1764.692a7.7,7.7,0,0,1-7.24-5.146l-11.923-33.72,4.146-1.465,11.926,33.723a3.287,3.287,0,0,0,6.392-1.091,3.238,3.238,0,0,0-.208-1.087l-6.643-18.86,4.15-1.461,6.641,18.854a7.609,7.609,0,0,1,.459,2.554A7.709,7.709,0,0,1,2032.573,1764.692Z" transform="translate(-12.488 -95.619)" fill="#0052b4"/>
  </g>
</svg>
