<svg id="コンポーネント_6_1" data-name="コンポーネント 6 – 1" xmlns="http://www.w3.org/2000/svg" width="27.972" height="27.972" viewBox="0 0 27.972 27.972">
  <g id="グループ_9" data-name="グループ 9" transform="translate(-831.687 -688.442)">
    <g id="グループ_8" data-name="グループ 8">
      <path id="パス_44" data-name="パス 44" d="M851.436,701.723l-8.378-6.015a.868.868,0,0,0-1.374.705v12.03a.868.868,0,0,0,1.374.705l8.378-6.015A.868.868,0,0,0,851.436,701.723Z" fill="#fff"/>
      <path id="パス_45" data-name="パス 45" d="M845.673,688.442a13.986,13.986,0,1,0,13.986,13.986A14,14,0,0,0,845.673,688.442Zm0,26.011A12.025,12.025,0,1,1,857.7,702.428,12.039,12.039,0,0,1,845.673,714.453Z" fill="#fff"/>
    </g>
  </g>
</svg>
